<svg xmlns="http://www.w3.org/2000/svg" viewBox="0 0 1000 500">
  <rect width="1000" height="500" fill="#091020"/>
  
  <!-- X and Y axis -->
  <path d="M50 400 H950" stroke="#152035" stroke-width="2"/>
  <path d="M50 50 V400" stroke="#152035" stroke-width="2"/>
  
  <!-- Bar chart elements -->
  <g fill="#152035">
    <rect x="100" y="300" width="30" height="100"/>
    <rect x="150" y="250" width="30" height="150"/>
    <rect x="200" y="200" width="30" height="200"/>
    <rect x="250" y="320" width="30" height="80"/>
    <rect x="300" y="270" width="30" height="130"/>
    <rect x="350" y="180" width="30" height="220"/>
    <rect x="400" y="230" width="30" height="170"/>
    <rect x="450" y="150" width="30" height="250"/>
    <rect x="500" y="280" width="30" height="120"/>
    <rect x="550" y="220" width="30" height="180"/>
    <rect x="600" y="170" width="30" height="230"/>
    <rect x="650" y="240" width="30" height="160"/>
    <rect x="700" y="190" width="30" height="210"/>
    <rect x="750" y="310" width="30" height="90"/>
    <rect x="800" y="260" width="30" height="140"/>
    <rect x="850" y="210" width="30" height="190"/>
    <rect x="900" y="160" width="30" height="240"/>
  </g>
  
  <!-- Highlighted bars -->
  <g fill="#FF3E3E" opacity="0.8">
    <rect x="200" y="200" width="30" height="200"/>
    <rect x="350" y="180" width="30" height="220"/>
    <rect x="450" y="150" width="30" height="250"/>
    <rect x="600" y="170" width="30" height="230"/>
    <rect x="900" y="160" width="30" height="240"/>
  </g>
  
  <!-- Grid lines -->
  <g stroke="#152035" stroke-width="1" opacity="0.3">
    <path d="M50 350 H950"/>
    <path d="M50 300 H950"/>
    <path d="M50 250 H950"/>
    <path d="M50 200 H950"/>
    <path d="M50 150 H950"/>
    <path d="M50 100 H950"/>
  </g>
  
  <!-- Accent elements -->
  <circle cx="200" cy="200" r="5" fill="#FF3E3E"/>
  <circle cx="450" cy="150" r="5" fill="#FF3E3E"/>
  <circle cx="900" cy="160" r="5" fill="#FF3E3E"/>
</svg>